<?xml version="1.0" encoding="UTF-8"?>
<svg id="Vrstva_1" xmlns="http://www.w3.org/2000/svg" version="1.1" viewBox="0 0 100 100">
  <!-- Generator: Adobe Illustrator 30.2.1, SVG Export Plug-In . SVG Version: 2.1.1 Build 1)  -->
  <path d="M9.783,47.373c-1.431,2.371-1.783,5.279-1.825,7.991-.003.223-.055.441-.152.641-.318.657-1.429,2.062-1.502,3.136-.134,2.009.013,3.918.444,5.733.234.98.67,1.872,1.308,2.684,1.203,1.523,3.044,1.778,4.843,1.946.097.011.181.076.213.168,2.765,8.225,13.903,8.627,16.865.344.037-.097.129-.163.234-.163h39.818c.084,0,.16.053.189.134,1.875,5.504,8.346,7.813,13.246,4.57,1.657-1.098,2.823-2.616,3.498-4.551.034-.095.121-.158.221-.16,2.308-.039,4.601-.244,6.878-.615,1.331-.218,2.65-.914,2.631-2.434-.005-.63-.407-1.292-.746-1.925-.079-.15-.095-.323-.042-.483.263-.819.727-1.762.806-2.5.105-1.001-.008-1.957-.339-2.865-1.631-4.488-5.77-7.248-10.079-8.771-3.501-1.234-7.156-2.033-10.867-2.7-.231-.042-.452-.118-.662-.226-.607-.313-1.113-.63-1.518-.953-5.846-4.688-11.883-9.36-19.297-11.3-3.677-.961-7.398-1.465-11.167-1.513-8.322-.102-16.532.93-25.148,2.555-1.313.247-2.584,1.029-2.324,2.553.089.515.504,1.066.783,1.476.05.074.037.171-.026.231-2.379,2.245-4.635,4.278-6.282,6.999ZM10.429,51.279c.018-.121.118-.213.242-.221.62-.037,2.109.323,2.172,1.232.105,1.576-1.479,2.148-2.721,2.398-.108.024-.205-.068-.189-.179l.496-3.23ZM21.59,73.956c-3.732,0-6.757-3.025-6.757-6.757s3.025-6.757,6.757-6.757,6.757,3.025,6.757,6.757-3.025,6.757-6.757,6.757ZM78.576,73.95c-3.729,0-6.752-3.023-6.752-6.752s3.023-6.752,6.752-6.752,6.752,3.023,6.752,6.752-3.023,6.752-6.752,6.752ZM86.48,52.894c.011-.213.228-.349.425-.268,2.484,1.027,4.622,2.621,6.413,4.782.045.055.008.139-.063.139-2.398.055-4.349-.706-5.856-2.287-.662-.693-.969-1.481-.919-2.366ZM17.927,39.154c-.207-.194-.376-.376-.509-.544-.102-.131-.034-.323.129-.357,5.954-1.221,11.981-2.048,18.081-2.479,4.26-.299,8.112-.271,11.555.089,5.896.615,11.293,2.511,16.185,5.688,1.752,1.137,4.648,3.222,6.904,5.082,1.347,1.108,2.566,2.085,3.997,2.652.339.134.888.273,1.644.42,3.025.583,5.912,1.279,8.658,2.085.087.026.134.118.108.202-1.016,3.123,2.012,6.077,4.735,6.967,1.584.517,3.18.706,4.788.57.092-.008.179.047.215.134.362.875.42,1.83.058,2.731-.693,1.725-.809,2.715.079,4.367.079.144-.008.326-.171.355-2.248.42-4.549.654-6.902.699-.079.003-.139-.066-.131-.142.323-3.165-1.573-6.497-4.265-8.036-3.902-2.232-8.469-1.389-11.348,1.972-1.376,1.607-2.043,3.627-2.001,6.061.003.079-.063.142-.142.142h-26.07c-.076,0-.142-.047-.163-.118-1.045-3.262-1.978-6.71-2.219-10.163-.176-2.553.171-4.724,1.027-6.944.045-.113.155-.181.276-.171,5.533.465,10.838.814,15.92,1.043,2.251.102,4.454.144,6.615.131,1.812-.013,3.133-.11,3.96-.292,1.2-.263,1.563-.977,1.092-2.146-.139-.349-.483-.748-1.029-1.192-3.755-3.059-7.059-5.381-9.911-6.967-6.999-3.897-16.198-4.168-24.515-3.28-5.111.546-10.754,1.922-13.068,7.07-.88,1.956-.142,3.803,2.13,4.044,5.118.544,10.594,1.019,16.421,1.421.068.005.11.074.084.137-.822,2.043-1.174,4.231-1.056,6.56.184,3.569.898,7.122,2.143,10.657.037.102-.039.207-.147.207h-10.505c-.095,0-.168-.076-.165-.171.068-2.537-.725-4.693-2.379-6.471-3.603-3.876-9.872-3.656-13.225.334-1.331,1.584-2.022,3.543-2.072,5.883-.003.081-.074.144-.152.134-.775-.097-1.447-.276-2.014-.538-1.991-.924-2.237-4.249-2.293-6.232-.018-.643.01-1.111.084-1.402.032-.137.081-.265.15-.386l1.113-1.928c.076-.134.207-.228.362-.263,2.532-.541,5.289-1.668,4.814-4.89-.286-1.946-1.715-2.455-3.43-2.697-.131-.018-.2-.165-.131-.281,1.77-2.915,4.409-5.31,6.676-7.563.586-.583.675-1.565.01-2.185ZM41.331,39.437c-.008-.055.034-.105.092-.108,4.47-.113,8.685.436,12.645,1.647,1.83.559,3.889,1.573,6.174,3.041,2.461,1.581,4.869,3.388,7.225,5.418.066.058.026.165-.06.165-8.173.11-15.988-.528-24.66-1.187-.063-.005-.113-.053-.123-.113l-1.292-8.863ZM40.525,48.077c.013.081-.055.152-.137.147-5.607-.368-11.025-.819-16.259-1.355-.352-.034-.796.026-.93-.291-.331-.793,1.258-2.842,1.678-3.222,2.382-2.138,5.297-3.038,8.462-3.461,1.938-.26,3.881-.423,5.83-.491.05-.003.095.037.102.087l1.253,8.588Z" fill="#c32785"/>
  <path d="M46.489,51.528h.079c.538,0,.975.437.975.975v3.608c0,.538-.436.974-.974.974h-.079c-.538,0-.974-.437-.974-.974v-3.608c0-.538.437-.974.974-.974Z" transform="translate(-7.94 100.645) rotate(-89.8)" fill="#c32785"/>
</svg>