<?xml version="1.0" encoding="UTF-8"?>
<svg id="Vrstva_1" xmlns="http://www.w3.org/2000/svg" version="1.1" viewBox="0 0 100 100">
  <!-- Generator: Adobe Illustrator 30.2.1, SVG Export Plug-In . SVG Version: 2.1.1 Build 1)  -->
  <path d="M69.042,98.136h-.108c-10.549-.093-29.996-14.42-42.133-35.604l-.251-.454,3.099-2.25-3.31,1.896C14.202,40.538,11.676,16.517,16.93,7.372c1.693-2.945,4.25-4.578,7.202-4.6l12.47.561c2.36.136,4.478,1.503,5.714,3.66l.263.488c.929,1.697.969,3.099,1.03,5.284.022.801.05,1.816.121,3.148.253,2.142.617,5.116.991,7.072.726,3.863-1.464,7.653-4.986,8.638l-3.25.868c-.115-.024-.095-.164-.093-.175-.222,1.289,1.17,6.592,5.921,15.928.829,1.62,1.548,2.948,1.997,3.736.44.762,1.222,2.054,2.205,3.6,5.249,8.191,8.964,12.121,10.443,13.004l2.552-2.351c2.667-2.574,7.048-2.552,10.002.026,1.483,1.304,3.874,3.129,5.796,4.574.92.6,1.784,1.136,2.462,1.561,1.93,1.203,3.137,1.959,4.157,3.762l.034.048c1.371,2.384,1.479,4.898.428,6.958l-5.748,10.911c-1.591,2.682-4.254,4.06-7.599,4.06ZM33.41,58.721c10.872,18.976,26.755,30.069,34.071,31.6,1.643.346,2.395.112,2.507.034l5.394-10.255-.052-.104c-.209-.261-.916-.7-1.598-1.125-.723-.451-1.635-1.024-2.82-1.803-2.336-1.751-4.749-3.598-6.403-5.047l-1.993,1.971c-1.542,1.516-3.636,2.287-5.793,2.313-1.805-.03-6.057-.101-16.638-16.618-1.065-1.673-1.907-3.066-2.395-3.913-.497-.874-1.276-2.306-2.174-4.062-8.897-17.487-6.813-21.188-5.921-22.77,1.041-1.863,2.833-3.258,4.912-3.818l2.682-.715c-.402-2.347-.775-5.411-1.058-7.854-.095-1.648-.125-2.727-.149-3.576-.022-.805-.045-1.637-.101-1.857l-.119-.188-11.775-.535c.067.054-.508.574-1.043,2.157-2.393,7.074-.866,26.387,10.015,45.377l.007.015-3.317,1.881,3.377-1.784.196.339-3.235,2.03,3.423-1.691ZM57.256,68.73h0ZM36.392,32.315h0Z" fill="#fff"/>
</svg>