<?xml version="1.0" encoding="UTF-8"?>
<svg id="Vrstva_1" xmlns="http://www.w3.org/2000/svg" version="1.1" viewBox="0 0 100 100">
  <!-- Generator: Adobe Illustrator 30.2.1, SVG Export Plug-In . SVG Version: 2.1.1 Build 1)  -->
  <g id="paper_plane">
    <path d="M63.999,89.334c-.997,0-1.983-.287-2.856-.852L10.474,55.694c-1.595-1.031-2.495-2.779-2.406-4.678.088-1.897,1.146-3.555,2.83-4.435L79.451,10.814c1.883-.983,4.074-.77,5.733.553,1.657,1.32,2.353,3.411,1.818,5.461l-17.884,68.551c-.433,1.66-1.596,2.968-3.195,3.59-.629.244-1.279.364-1.925.364ZM81.893,13.727c-.246,0-.521.055-.815.208L12.527,49.702c-.809.423-.93,1.175-.945,1.478-.014.304.036,1.064.802,1.559l50.669,32.787c.485.313,1.065.371,1.595.163.531-.208.919-.643,1.064-1.196h0L83.596,15.94c.268-1.028-.395-1.653-.605-1.822-.144-.115-.552-.392-1.098-.392Z" fill="#c32484"/>
    <path d="M34.513,91.408c-.268,0-.538-.062-.787-.186-.596-.299-.973-.907-.973-1.574v-21.116c0-.973.787-1.76,1.76-1.76s1.76.787,1.76,1.76v17.597l11.262-8.446c.773-.586,1.878-.428,2.462.352.584.777.426,1.88-.352,2.462l-14.077,10.558c-.309.234-.682.352-1.055.352Z" fill="#c32484"/>
    <path d="M34.994,70.029c-.421,0-.842-.15-1.179-.454-.722-.651-.778-1.763-.127-2.485l34.712-38.45c.653-.723,1.763-.778,2.485-.127s.778,1.763.127,2.485l-34.712,38.45c-.347.385-.827.581-1.306.581Z" fill="#c32484"/>
  </g>
</svg>