<?xml version="1.0" encoding="UTF-8"?>
<svg id="Vrstva_1" xmlns="http://www.w3.org/2000/svg" version="1.1" viewBox="0 0 100 100">
  <!-- Generator: Adobe Illustrator 30.2.1, SVG Export Plug-In . SVG Version: 2.1.1 Build 1)  -->
  <path d="M27.165,87.81c-.299,0-.598-.08-.865-.244-.611-.38-.907-1.107-.733-1.802l6.363-25.45-19.106-19.106c-.47-.47-.611-1.181-.357-1.795s.856-1.017,1.522-1.017h25.167l9.506-28.522c.216-.643.804-1.091,1.483-1.123.74-.064,1.309.357,1.586.975l12.743,28.67h25.283c.666,0,1.268.402,1.522,1.017s.113,1.325-.357,1.795l-19.106,19.106,6.363,25.45c.167.676-.106,1.387-.688,1.773-.579.383-1.338.364-1.898-.055l-25.299-18.977-22.056,18.91c-.306.261-.688.396-1.071.396ZM50.224,64.747c.347,0,.695.109.988.328l22.642,16.986-5.463-21.853c-.138-.56.026-1.155.434-1.563l16.954-16.954h-22.378c-.65,0-1.242-.383-1.506-.978l-11.453-25.768-8.538,25.621c-.225.672-.856,1.126-1.563,1.126h-22.378l16.954,16.954c.409.409.573,1.004.434,1.563l-5.337,21.342,19.138-16.407c.306-.264.688-.396,1.071-.396Z" fill="#c31e82"/>
</svg>