<?xml version="1.0" encoding="UTF-8"?>
<svg id="Vrstva_1" xmlns="http://www.w3.org/2000/svg" version="1.1" viewBox="0 0 100 100">
  <!-- Generator: Adobe Illustrator 30.2.1, SVG Export Plug-In . SVG Version: 2.1.1 Build 1)  -->
  <path d="M11.615,63.43c1.021.099,1.815.148,2.377.151.085,0,.162.06.178.145,1.268,6.056,7.786,9.222,13.323,6.556,1.941-.933,3.407-2.487,4.398-4.662.22-.483.409-1.2.563-1.691.038-.121.151-.203.277-.203h36.974c.096,0,.178.066.2.156.678,2.677,2.095,4.678,4.247,5.999,4.173,2.559,9.342,1.537,12.346-2.342.673-.87,1.205-1.996,1.603-3.382.027-.091.11-.154.206-.156,1.463-.03,3.086.129,4.253-.623.502-.324,1.208-.835,2.111-1.529.327-.253.582-.5.766-.744.36-.483.552-.785.576-.906.437-2.188.571-3.984.398-5.386-.036-.277-.28-.763-.733-1.458-.137-.209-.236-.439-.296-.678-.475-1.867-.793-2.99-.955-3.366-.821-1.892-2.268-3.124-4.34-3.695-5.537-1.524-12.28-2.251-18.287-2.938-.091-.008-.176-.044-.244-.102-3.138-2.52-6.281-5.167-9.439-7.349-2.202-1.518-4.019-2.611-6.358-3.053-1.924-.365-3.896-.604-5.913-.719-8.129-.472-16.162-.231-24.005.236-4.022.239-7.857.944-11.813,1.299-2.119.189-3.003,2.133-1.03,3.454.121.082.145.253.049.365-1.2,1.392-2.52,2.987-3.964,4.791-1.444,1.806-2.29,2.792-2.336,4.799-.036,1.507-.044,3.709-.03,6.605,0,.137-.044.272-.126.384-.555.763-1.109.988-1.123,2.075-.025,1.724.088,3.769,1.194,5.106,1.167,1.414,3.132,2.688,4.953,2.861ZM23.327,69.088c-3.964,0-7.176-3.212-7.176-7.176s3.212-7.176,7.176-7.176,7.176,3.212,7.176,7.176-3.212,7.176-7.176,7.176ZM79.027,69.099c-3.956,0-7.165-3.209-7.165-7.165s3.209-7.165,7.165-7.165,7.165,3.209,7.165,7.165-3.209,7.165-7.165,7.165ZM92.639,50.617l.494,1.721c.019.063-.027.126-.093.129-2.064.033-3.734-.173-4.843-1.823-.038-.058.003-.135.071-.135h4.228c.066,0,.124.044.143.107ZM8.867,48.04c0-.093.077-.17.173-.17h3.187c.096,0,.159.099.124.187-.741,1.763-1.274,2.902-3.286,2.951-.107.003-.198-.085-.198-.192v-2.776ZM7.629,55.68c.003-.14.038-.275.102-.398.195-.379.769-.686.969-1.148.102-.233.154-.522.156-.862,0-.099.082-.178.181-.176,2.194.058,3.758-.9,4.7-2.874.607-1.271,1.694-3.193.093-4.228-.228-.146-.667-.217-1.315-.214-.513.003-1.628.005-3.344.003-.126,0-.214-.124-.173-.244.135-.393.373-.807.717-1.249,1.488-1.919,3.33-4.173,5.526-6.756.744-.879.324-1.73-.439-2.353-.044-.036-.025-.11.033-.115,1.499-.162,3.882-.453,7.146-.879,1.655-.217,3.964-.39,6.932-.522,5.002-.222,9.622-.332,13.864-.324,3.948.008,8.069.176,12.06.862,2.199.379,4.016,1.326,5.946,2.701,2.957,2.106,5.996,4.489,9.117,7.149.489.417,1.035.659,1.642.728,6.715.766,11.179,1.31,16.917,2.608.774.176,1.598.437,2.468.78.069.027.107.102.091.173-.016.071-.082.124-.156.118-.969-.058-1.881-.069-2.732-.038-2.07.08-3.138,1.321-1.867,3.231,1.773,2.663,4.373,3.047,7.382,2.891.099-.003.192.033.261.102.651.656.48,1.691.401,2.545-.154,1.664-.14,2.369-1.422,3.344-.692.527-1.31.939-1.853,1.233-.071.038-.148.058-.231.058h-2.27c-.093,0-.173-.071-.181-.165-.338-4.291-2.891-7.679-6.992-8.777-2.474-.662-5.238-.258-7.415,1.183-2.556,1.688-3.984,4.135-4.283,7.341-.008.104-.099.187-.206.187h-36.568c-.132,0-.239-.102-.247-.233-.209-3.662-2.55-6.841-5.933-8.154-5.93-2.298-12.253,1.743-12.716,8.129-.005.085-.074.151-.159.154-2.254.102-4.096-.664-5.526-2.303-.132-.154-.236-.332-.305-.522-.283-.788-.406-1.782-.371-2.984Z" fill="#c32785"/>
  <path d="M17.449,44.147c.354.162.782.264,1.279.299,3.923.299,6.13.464,6.616.489,17.417.887,31.322,1.452,41.718,1.691.524.014.876-.195,1.049-.626.357-.879-.253-1.655-.903-2.207-3.443-2.927-5.452-4.706-8.316-6.583-1.513-.994-3.22-1.622-5.123-1.883-5.606-.771-11.58-.656-18.325-.456-4.697.14-8.568.321-11.61.549-1.952.145-3.272.5-4.609,2.048-1.051,1.216-1.963,2.592-2.734,4.124-.469.933-.016,2.108.958,2.556ZM45.619,36.869c2.402.055,4.631.195,6.693.42,1.826.198,3.366.623,4.615,1.279.936.491,2.111,1.307,3.525,2.446.2.159,1.59,1.274,4.173,3.347.047.038.019.113-.041.11l-17.913-.645c-.124-.005-.225-.096-.242-.217l-.958-6.572c-.014-.091.058-.17.148-.167ZM26.734,42.736l2.13-5.45c.016-.044.058-.071.104-.074l14.166-.428c.06-.003.11.041.121.102l.977,6.732c.011.074-.047.14-.121.135l-17.274-.854c-.082-.003-.135-.085-.104-.162ZM18.638,42.189c.612-1.172,1.345-2.301,2.199-3.38.167-.214.404-.415.706-.601.305-.189.587-.313.851-.371,1.348-.288,2.682-.447,4.005-.48.066-.003.113.066.085.129-.804,1.941-1.485,3.662-2.037,5.159-.011.027-.038.058-.088.085-.047.03-.085.044-.115.041-1.587-.165-3.429-.313-5.529-.447-.066-.003-.107-.074-.077-.135Z" fill="#c32785"/>
  <rect x="26.366" y="47.427" width="5.677" height="2.092" rx="1.005" ry="1.005" fill="#c32785"/>
  <path d="M49.957,46.612h.082c.55,0,.997.447.997.997v3.717c0,.55-.447.997-.997.997h-.083c-.55,0-.996-.446-.996-.996v-3.717c0-.55.447-.997.997-.997Z" transform="translate(.444 99.379) rotate(-89.9)" fill="#c32785"/>
  <path d="M23.299,57.206c-2.605,0-4.719,2.114-4.719,4.719s2.114,4.719,4.719,4.719,4.719-2.114,4.719-4.719-2.114-4.719-4.719-4.719ZM23.286,64.514c-1.425,0-2.578-1.153-2.578-2.578s1.153-2.578,2.578-2.578,2.578,1.153,2.578,2.578-1.153,2.578-2.578,2.578Z" fill="#c32785"/>
  <path d="M79.027,57.201c-2.603,0-4.714,2.111-4.714,4.714s2.111,4.714,4.714,4.714,4.714-2.111,4.714-4.714-2.111-4.714-4.714-4.714ZM79.2,64.532c-1.4.084-2.605-1.005-2.693-2.44-.087-1.434.975-2.664,2.376-2.75,1.4-.084,2.605,1.005,2.693,2.44.087,1.434-.975,2.664-2.376,2.75Z" fill="#c32785"/>
</svg>