<?xml version="1.0" encoding="UTF-8"?>
<svg id="Vrstva_1" xmlns="http://www.w3.org/2000/svg" version="1.1" viewBox="0 0 100 100">
  <!-- Generator: Adobe Illustrator 30.2.1, SVG Export Plug-In . SVG Version: 2.1.1 Build 1)  -->
  <path d="M3.623,56.095c-.167,1.4-.159,2.458.024,3.171.464,1.835,1.867,2.264,3.739,2.317.671.019,3.11.164,7.318.435.056.005.101.042.117.093,2.596,8.912,14.759,9.074,17.466.016.027-.088.109-.149.202-.149h37.976c.09,0,.17.061.194.146.666,2.341,1.92,4.107,3.768,5.293,3.423,2.196,7.891,1.954,10.901-.833,1.379-1.278,2.27-2.766,2.673-4.465.021-.087.101-.151.191-.148,1.079.029,2.567-.005,4.46-.103,2.272-.119,3.664-1.135,4.179-3.044.119-.448.178-1.35.172-2.699-.003-.477-.008-1.392-.016-2.742-.003-.379-.151-.928-.44-1.649-.138-.342-.31-1.474-.517-3.399-.231-2.166-.809-4.683-2.858-5.865-2.339-1.35-5.629-3.052-9.869-5.11-.384-.186-.764-.467-1.14-.843-3.177-3.174-6.563-6.64-10.161-10.394-1.875-1.954-4.078-3.002-6.613-3.139-2.381-.127-4.325-.215-5.833-.265-2.919-.093-15.106-.135-36.56-.127-3.704,0-7.308.109-10.81.326-2.978.183-4.317,2.516-4.903,5.136-1.461,6.52-2.185,13.125-2.172,19.815.003.628.04,2.572.114,5.833.003.09-.037.178-.106.236-.833.695-1.366,1.074-1.493,2.158ZM23.547,66.767c-3.802,0-6.886-3.084-6.886-6.886s3.084-6.886,6.886-6.886,6.886,3.084,6.886,6.886-3.084,6.886-6.886,6.886ZM79.317,66.765c-3.8,0-6.881-3.081-6.881-6.881s3.081-6.881,6.881-6.881,6.881,3.081,6.881,6.881-3.081,6.881-6.881,6.881ZM93.617,47.22c.077,0,.141.056.151.13l.353,2.416c.011.066-.042.127-.111.127h-3.086c-.371,0-.697-.247-.798-.602l-.48-1.665c-.058-.204.093-.406.305-.406h3.667ZM55.122,24.83c0-.053.042-.095.095-.098,3.593-.032,6.995.072,10.203.313,2.649.199,4.28,1.58,6.305,3.739,2.516,2.681,5.582,5.804,9.193,9.365,1.177,1.161,3.484,1.949,5.163,2.821,2.06,1.071,4.235,2.264,6.52,3.577.183.106.345.236.483.392.066.077.013.196-.087.196-.875.013-1.784.011-2.726-.008-.992-.019-1.636.077-1.933.286-1.185.833-.684,2.397-.414,3.712.668,3.246,3.757,2.903,6.303,2.763.093-.005.18.048.217.13.3.639.448,1.267.448,1.88,0,1.899.003,2.975.011,3.227.037,1.493-.461,2.617-1.975,2.694-1.228.061-2.736.093-4.521.095-.077,0-.14-.061-.143-.138-.111-3.914-2.331-7.005-5.894-8.31-5.921-2.169-11.842,2.182-12.025,8.347-.003.058-.053.106-.111.106h-15.045c-.037,0-.066-.029-.066-.066V24.83ZM7.29,43.123c.321-5.025,1.005-9.954,2.052-14.788.143-.66.395-1.342.758-2.039.554-1.069,1.543-1.336,2.819-1.395,3.195-.146,5.16-.22,5.897-.223,11.06-.045,21.289-.05,30.692-.016,1.016.003,2.15.021,3.405.05.077.003.141.066.141.146v34.916c0,.082-.066.151-.148.151h-20.215c-.074,0-.135-.058-.141-.133-.268-3.932-2.135-6.666-5.6-8.196-3.264-1.445-7.326-.528-9.853,1.999-.077.077-.186.122-.297.122H7.341c-.056,0-.103-.045-.101-.101.048-2.853-.167-7.082.05-10.495ZM5.575,56.548c.024-.549.329-.817.912-.801.748.019,3.723.024,8.925.013.09,0,.146.098.101.175-.634,1.108-.941,2.365-.923,3.773.003.093-.072.172-.164.18-.212.019-2.835-.125-7.865-.43-.687-.04-.984-.387-1.01-1.058-.019-.501-.011-1.119.024-1.853Z" fill="#c32785"/>
  <path d="M14.187,41.591c16.957.019,28.271.013,33.948-.011.801-.005,1.604.019,2.074-.236,1.143-.623,1.469-1.413,1.466-2.803-.003-4.33,0-7.011.005-8.042.005-1.164-.048-1.875-.162-2.129-.501-1.138-1.281-1.705-2.339-1.702-7.562.008-18.609.005-33.139-.008-1.639-.003-2.628.732-2.964,2.203-.459,1.991-.939,5.099-1.445,9.323-.072.607-.072,1.039.003,1.291.414,1.408,1.265,2.111,2.553,2.113ZM13.657,38.587c.316-3.124.788-6.202,1.413-9.233.09-.438.366-.655.83-.655,13.923.013,25.02.011,33.29-.005.204,0,.371.164.374.369.024,2.479.024,5.788,0,9.933-.003.62-.525.552-1.074.552-21.289-.003-32.418,0-33.386.003-.811.003-1.562.164-1.448-.963Z" fill="#c32785"/>
  <path d="M56.718,40.018c.689,1.729,2.286,1.583,4.306,1.586,4.367.008,9.519.005,15.459-.008,1.885-.003,3.36-1.914,2.068-3.609-.241-.321-.498-.618-.772-.891-1.387-1.408-4.163-4.264-8.334-8.567-.939-.97-2.074-1.517-3.407-1.641-2.074-.194-4.314-.265-6.724-.22-1.27.024-2.111.512-2.522,1.458-.141.326-.212,1.344-.212,3.055-.005,4.998.008,7.788.037,8.374.008.159.042.316.101.464ZM58.683,29.518c0-.228.016-.406.045-.533.037-.164.183-.278.35-.281,2.352-.037,4.622.034,6.804.215,1.358.111,2.193,1.116,3.407,2.376,3.911,4.06,6.465,6.698,7.658,7.912.085.085.053.231-.061.27-.146.053-.323.08-.536.08-7.745-.013-13.417-.013-17.018,0-.456.003-.681-.209-.676-.631.021-2.055.029-5.189.026-9.408Z" fill="#c32785"/>
  <rect x="45.088" y="44.059" width="5.489" height="2.01" rx=".968" ry=".968" transform="translate(-.079 .084) rotate(-.1)" fill="#c32785"/>
  <rect x="59.383" y="42.301" width="2.02" height="5.531" rx=".973" ry=".973" transform="translate(15.221 105.381) rotate(-89.9)" fill="#c32785"/>
  <path d="M23.544,55.389c-2.503,0-4.532,2.028-4.532,4.532s2.028,4.532,4.532,4.532,4.532-2.028,4.532-4.532-2.028-4.532-4.532-4.532ZM23.526,62.379c-1.366,0-2.474-1.108-2.474-2.474s1.108-2.474,2.474-2.474,2.474,1.108,2.474,2.474-1.108,2.474-2.474,2.474Z" fill="#c32785"/>
  <path d="M79.323,55.403c-2.498,0-4.521,2.023-4.521,4.521s2.023,4.521,4.521,4.521,4.521-2.023,4.521-4.521-2.023-4.521-4.521-4.521ZM81.676,60.454c-.309,1.336-1.624,2.174-2.938,1.871-1.313-.302-2.13-1.633-1.821-2.97.309-1.336,1.624-2.174,2.938-1.871,1.313.302,2.13,1.633,1.821,2.97Z" fill="#c32785"/>
</svg>