<?xml version="1.0" encoding="UTF-8"?>
<svg id="Vrstva_1" xmlns="http://www.w3.org/2000/svg" version="1.1" viewBox="0 0 100 100">
  <!-- Generator: Adobe Illustrator 30.0.0, SVG Export Plug-In . SVG Version: 2.1.1 Build 123)  -->
  <g>
    <path d="M65,46.1c-.6,0-1.2-.4-1.4-1-1.2-3.4-4.4-6.3-7.9-7.3-.6-.2-1.1-.7-1.1-1.4s.4-1.2,1-1.4c3.4-1.2,6.5-4.3,7.5-7.8.2-.6.7-1,1.4-1.1.7,0,1.2.4,1.4,1,1.2,3.4,4.4,6.3,7.9,7.3.6.2,1.1.7,1.1,1.4,0,.6-.4,1.2-1,1.4-3.4,1.2-6.5,4.3-7.5,7.8-.2.6-.7,1-1.4,1.1,0,0,0,0,0,0ZM59.6,36.3c2.1,1.2,4,2.9,5.3,4.9,1.2-2.1,3-3.9,5-5.2-2.1-1.2-4-2.9-5.3-4.9-1.2,2.1-3,3.9-5,5.2Z" fill="#c21b81"/>
    <path d="M67.4,75.2c-.5,0-1-.3-1.3-.7-.4-.7-.2-1.6.6-2,8.5-4.9,17.8-7.7,27.7-8.5.8,0,1.5.5,1.6,1.4,0,.8-.5,1.5-1.4,1.6-9.4.7-18.3,3.5-26.4,8.1-.2.1-.5.2-.7.2Z" fill="#c21b81"/>
    <path d="M39.1,28.1c-.6,0-1.1-.3-1.3-.8-.4-.7,0-1.6.7-2,16.8-8.1,35.6-12,54.3-11.3.8,0,1.5.7,1.4,1.5s-.7,1.5-1.5,1.4c-18.2-.7-36.6,3.1-52.9,11-.2,0-.4.1-.6.1Z" fill="#c21b81"/>
    <g>
      <path d="M51,91.9c-.6,0-1.2-.4-1.4-1.1-1.2-4.1-1.4-7.4-1.5-10.4-.1-2.1-.2-4-.7-6-.3-1.3-.5-2.7-.8-4.3-.9-4.8-1.9-10.7-4.6-17-.2-.5-.6-1.1-1.1-1.2-.3,0-.6,0-.7.2-.2.7-.9,1.1-1.6,1-.8-.1-1.4-.9-1.3-1.7.2-1.2,1.4-2.2,2.9-2.5,1.9-.3,3.6.8,4.5,3,2.8,6.6,3.9,12.8,4.8,17.7.3,1.5.5,3,.8,4.2.5,2.3.6,4.3.7,6.5.2,2.9.3,5.9,1.4,9.7.2.8-.2,1.6-1,1.8-.1,0-.3,0-.4,0ZM40.2,51.8h0s0,0,0,0Z" fill="#c21b81"/>
      <path d="M41,62.4c-.6,0-1.2-.4-1.4-1.1,0,0-2.8-9.7-3.8-13-.3-.9-.7-1-1.1-1.1-.7,0-1.4.3-1.5.5-.3.8-1.1,1.1-1.9.8-.8-.3-1.1-1.2-.9-1.9.5-1.4,2.4-2.4,4.2-2.4,1.9,0,3.4,1.2,4,3.2,1,3.3,3.8,12.9,3.8,13,.2.8-.2,1.6-1,1.8-.1,0-.3,0-.4,0Z" fill="#c21b81"/>
      <path d="M28.8,64.9l-5.2-17.9c-.5-1.9-.1-3.3.3-4.1.6-1.1,1.5-1.8,2.2-1.9.6-.2,2.1-.6,3.5.2,1,.6,1.7,1.5,2.2,3,.9,3.1,5.5,18.2,5.6,18.3.2.8-.2,1.6-1,1.9-.8.2-1.6-.2-1.9-1,0-.2-4.7-15.2-5.6-18.3-.2-.6-.4-1-.7-1.2-.4-.2-.9,0-1.2,0,0,0-1.1.6-.6,2.4l5.2,17.9-2.8.8Z" fill="#c21b81"/>
      <path d="M33.7,92c-.5,0-1.1-.3-1.3-.8-.3-.6-1.1-1.2-2.6-2.4-.5-.4-1-.8-1.6-1.2-2-1.6-3.2-3-4.4-4.5-.9-1.1-1.8-2.2-3.1-3.6-.9-.9-2.4-1.8-3.9-2.7-2.5-1.4-4.4-2.6-4.8-4.3-.2-1,0-2.1.9-2.8,1.3-1.3,3.9-1.8,6.6-1.1,1.8.4,3.2,1.3,4.3,2-.1-.8-.3-1.8-.6-3-.9-4.2-1.9-8.1-3-11.9-1.6-5.3-1-8.5,1.8-9.5,2.1-.7,3.8,0,4,0,.7.3,1.1,1.2.8,2-.3.7-1.2,1.1-1.9.8,0,0-.9-.3-1.8,0-.9.3-.9,2.6,0,5.9,1.1,3.9,2.1,7.8,3.1,12.1,1,4.3,1.1,6.3-.2,7.2-1.1.8-2.2,0-3.3-.7-1-.7-2.3-1.5-3.8-1.9-2.3-.5-3.8.1-3.9.4.2.5,2.2,1.7,3.4,2.4,1.6,1,3.3,1.9,4.5,3.1,1.5,1.5,2.5,2.7,3.4,3.9,1.1,1.4,2.1,2.6,3.8,4,.6.5,1.1.9,1.6,1.2,1.8,1.3,2.8,2.1,3.5,3.4.4.7,0,1.6-.6,2-.2.1-.5.2-.7.2Z" fill="#c21b81"/>
      <path d="M21.7,89.6c-1.4,0-3.1-.3-5-1-4.7-1.6-8.5-5.7-10-10.8-1.5-5-.5-10.1,2.7-14.1,3.7-4.6,3.1-7,2.3-10.8-.4-1.8-.8-3.8-.9-6.3-.2-10.9,8.7-16.6,17.5-17.3,8.6-.7,18.1,3.2,19.5,12.2,1.2,7.6,5,13.2,7.8,17.2,1.1,1.6,2,2.9,2.6,4.2,2.1,4.2,3.4,10.7,1.3,15.1-1,2.2-2.8,3.6-5.1,4.1-.8.2-1.6-.3-1.8-1.1-.2-.8.3-1.6,1.1-1.8,1.4-.3,2.4-1.1,3.1-2.5,1.6-3.3.5-8.9-1.2-12.5-.5-1-1.4-2.3-2.4-3.8-2.9-4.3-6.9-10.2-8.2-18.4-1.2-7.2-9.1-10.3-16.3-9.7-7.4.6-14.9,5.3-14.8,14.3,0,2.2.4,4,.8,5.7.9,3.9,1.7,7.6-2.9,13.3-2.6,3.3-3.4,7.3-2.2,11.4,1.2,4.1,4.3,7.5,8.1,8.8,3.1,1,4.7.9,5.3.7.8-.2,1.6.2,1.9,1s-.2,1.6-1,1.9c-.6.2-1.3.3-2.1.3Z" fill="#c21b81"/>
    </g>
  </g>
  <path d="M84.9,56.8c-.6,0-1.2-.4-1.4-1-.8-2.1-2.8-4-5-4.6-.6-.2-1.1-.7-1.1-1.4s.4-1.2,1-1.4c2.1-.7,4.1-2.8,4.7-4.9.2-.6.7-1,1.4-1.1.7,0,1.2.4,1.4,1,.8,2.1,2.8,4,5,4.6.6.2,1.1.7,1.1,1.4,0,.6-.4,1.2-1,1.4-2.1.7-4.1,2.8-4.7,4.9-.2.6-.7,1-1.4,1.1,0,0,0,0,0,0ZM82.2,49.7c1,.7,1.9,1.5,2.6,2.5.7-1,1.5-1.9,2.5-2.6-1-.7-1.9-1.5-2.6-2.5-.7,1-1.5,1.9-2.5,2.6Z" fill="#c21b81"/>
</svg>