<?xml version="1.0" encoding="UTF-8"?>
<svg id="Vrstva_1" xmlns="http://www.w3.org/2000/svg" version="1.1" viewBox="0 0 100 100">
  <!-- Generator: Adobe Illustrator 30.0.0, SVG Export Plug-In . SVG Version: 2.1.1 Build 123)  -->
  <g>
    <path d="M41.1,85.7c-4.2,0-9-1.1-13.7-3.4-6.9-3.4-12.1-8.8-13.9-14.3-1-3.1-.9-6,.3-8.5,2.5-5,9.1-7.3,17.1-5.9.7.1,1.3.8,1.1,1.6-.1.7-.8,1.3-1.6,1.1-6.7-1.1-12.3.6-14.2,4.4-.9,1.8-1,4.1-.2,6.4,1.6,4.8,6.4,9.6,12.6,12.7,9.7,4.8,19.9,4.1,22.8-1.6.6-1.1.8-2.4.7-3.8,0-.8.5-1.4,1.3-1.5.7,0,1.4.5,1.5,1.3.1,1.9-.2,3.6-1,5.2-2.1,4.1-6.9,6.3-12.8,6.3Z" fill="#c21b81"/>
    <path d="M38.1,92.9c-4.2,0-9.2-.9-14.3-3.5-.7-.3-1-1.2-.6-1.8.3-.7,1.2-1,1.8-.6,7.8,3.9,15.2,3.7,19.6,2.2,5.6-1.9,8.1-8.3,7.6-13.7,0-.8.5-1.4,1.2-1.5.8,0,1.4.5,1.5,1.2.6,6.3-2.2,14.1-9.4,16.6-2,.7-4.6,1.1-7.5,1.1Z" fill="#c21b81"/>
    <path d="M24.5,89.5c-.2,0-.4,0-.6-.1-8.5-4.2-13.3-11-14.9-15.9-2.3-7,2.2-14.1,7.8-17.6.6-.4,1.5-.2,1.9.4.4.6.2,1.5-.4,1.9-4.7,2.9-8.5,8.8-6.6,14.4,1.5,4.4,5.8,10.5,13.5,14.3.7.3,1,1.2.6,1.8-.2.5-.7.8-1.2.8Z" fill="#c21b81"/>
    <path d="M38.5,74.9c-.2,0-.5,0-.7,0-1.2-.2-3.1-.8-5.2-1.8-2.2-1.1-3.7-2.3-4.6-3.1-1.2-1.1-1.6-2.9-.8-4.4l1.8-3.7c.3-.7,1.2-1,1.8-.6.7.3,1,1.2.6,1.8l-1.8,3.7c-.2.4-.1.8.2,1.1.8.7,2.1,1.7,4,2.7,1.9.9,3.5,1.4,4.5,1.6.4,0,.8-.1,1-.5l1.8-3.5c.3-.7,1.2-1,1.8-.6.7.3,1,1.2.6,1.8l-1.8,3.5c-.6,1.3-1.9,2-3.3,2Z" fill="#c21b81"/>
    <path d="M80.7,89c-.5,0-1-.1-1.5-.4l-5.6-2.8c-1.1-.5-1.8-1.5-1.9-2.7l-.3-2.7-2.4-1.2c-2.2-1.1-4.8-1.4-7.8-.8-1.1.2-2.3,0-3.4-.5l-27.5-13.8c-2.6-1.3-3.6-4.5-2.4-7l4.4-8.9c.6-1.3,1.7-2.2,3-2.6,1.3-.4,2.8-.3,4,.3l27.5,13.8c1.7.8,2.7,2.5,2.9,4.2l12.5,6.2c1.2.6,1.9,1.8,1.9,3.1l-.2,12.3c0,1.2-.6,2.3-1.6,2.9-.5.3-1.2.5-1.8.5ZM64.2,75.4c2.2,0,4.3.5,6.1,1.4l3.1,1.5c.4.2.7.6.7,1.1l.4,3.4c0,.2.2.5.4.6l5.6,2.8c.3.1.5,0,.7,0,.1,0,.3-.2.3-.6l.2-12.3c0-.3-.2-.5-.4-.6l-11.8-5.9s0,0,0,0c-.3.7-1.2,1-1.8.6-.7-.3-1-1.2-.6-1.8.6-1.2.1-2.7-1.1-3.4l-27.5-13.7c-.6-.3-1.3-.3-1.9-.1-.6.2-1.2.7-1.5,1.3l-4.4,8.9c-.6,1.2-.1,2.7,1.1,3.4l27.5,13.8c.5.2,1.1.3,1.6.2,1.2-.2,2.3-.3,3.4-.3Z" fill="#c21b81"/>
    <path d="M73.5,62.4c-.4,0-.7-.1-1-.4-.5-.5-.5-1.4,0-1.9,2.2-2.1,7.5-5.5,12.7-5.5s1.4.6,1.4,1.4-.6,1.4-1.4,1.4c-4.4,0-9.2,3.3-10.7,4.8-.3.3-.6.4-1,.4Z" fill="#c21b81"/>
    <path d="M21.4,49.9c-.3,0-.5,0-.8-.2-.6-.4-.8-1.3-.4-1.9,1-1.5,3.3-3.8,3.4-3.9,16-16.2,37.8-27.2,61.3-31.2.8-.1,1.5.4,1.6,1.1s-.4,1.5-1.1,1.6c-23,3.9-44.2,14.7-59.8,30.4-.6.6-2.4,2.5-3.1,3.5-.3.4-.7.6-1.1.6Z" fill="#c21b81"/>
    <path d="M57.4,48.6c-.6,0-1.1-.4-1.3-.9-1-3.1-3.8-5.8-6.9-6.9-.6-.2-.9-.7-.9-1.3s.4-1.1.9-1.3c3.1-1,5.9-3.8,6.9-6.9.2-.6.7-.9,1.3-.9s1.1.4,1.3.9c1,3.1,3.8,5.8,6.9,6.9.6.2.9.7.9,1.3s-.4,1.1-.9,1.3c-3.1,1-5.9,3.8-6.9,6.9-.2.6-.7.9-1.3.9ZM52.9,39.5c1.8,1.1,3.4,2.7,4.6,4.6,1.1-1.8,2.7-3.4,4.6-4.6-1.8-1.1-3.4-2.7-4.6-4.6-1.1,1.8-2.7,3.4-4.6,4.6Z" fill="#c21b81"/>
  </g>
  <path d="M82.1,49.8c-.6,0-1.1-.4-1.3-.9-.7-2.1-2.6-4-4.6-4.6-.6-.2-.9-.7-.9-1.3s.4-1.1.9-1.3c2.1-.7,4-2.6,4.6-4.6.2-.6.7-.9,1.3-.9h0c.6,0,1.1.4,1.3.9.7,2.1,2.6,4,4.6,4.6.6.2.9.7.9,1.3s-.4,1.1-.9,1.3c-2.1.7-4,2.6-4.6,4.6-.2.6-.7.9-1.3.9ZM79.5,42.9c1,.7,1.8,1.6,2.5,2.5.7-1,1.6-1.8,2.5-2.5-1-.7-1.8-1.6-2.5-2.5-.7,1-1.6,1.8-2.5,2.5Z" fill="#c21b81"/>
</svg>