<?xml version="1.0" encoding="UTF-8"?>
<svg id="Vrstva_1" xmlns="http://www.w3.org/2000/svg" version="1.1" viewBox="0 0 100 100">
  <!-- Generator: Adobe Illustrator 30.0.0, SVG Export Plug-In . SVG Version: 2.1.1 Build 123)  -->
  <path d="M11.5,78.2c2.6.3,5.3.4,8.1,0,3.7-.4,5.7-1.8,5.7-5.7,0-2.3,0-3.9,0-4.7,0-.1.1-.2.2-.2h23.2c.5,0,.9-.4.9-.9v-.3c0-.7-.6-1.4-1.4-1.4H9.7c-.1,0-.3-.1-.3-.3,0-4.6,0-10.4,0-17.3,0-5.5,2.5-9.2,7.4-11.3.4-.2.9-.3,1.4-.4,6-.7,10-1.1,12.1-1.1,6.9-.2,13.4-.5,19.7-.8.5,0,.8-.4.8-.9v-.3c0-.7-.6-1.3-1.3-1.3-8.2.3-14.8.6-19.7.7-3.6,0-8,.7-11.3,1.1-.2,0-.3-.2-.3-.3.4-1,1.4-3.7,3-8.1,1.1-3.1,2.1-5.3,3-6.5,3.9-5.6,8.8-5.4,16-5.4,5.9,0,13.5,0,23,0,3.1,0,5.3.3,6.7.9,5.9,2.7,8.4,7.8,10.3,14,.5,1.7.9,2.5,2.7,2.5.5,0,1.4,0,2.7-.3,1.5-.3,3,0,4.4.3,1.2.4,1.7,1.7,1.4,4,0,.7.4,1.2,1.1,1.3h0c.7,0,1.2-.4,1.3-1.1.4-2.7,0-5.7-3-6.5-2.5-.7-4.9-.8-7.1-.5-.3,0-.6-.1-.7-.4-1-3.1-2.3-6-3.9-8.7-3.8-6.3-8.8-8.2-16-8.1-7.9,0-14.9,0-20.9,0-8.1,0-15.6-.5-20.3,7-2,3.2-3.4,7.6-4.3,9.8-.2.4-.6.7-1,.7-2,0-4.2.2-6.4.4-3.1.3-4.8,1.8-5,4.5-.4,3.5,1.6,4.5,4.7,4.8.2,0,.3.2.2.4-1.9,2.4-2.9,5.1-3,8.1,0,2,0,9.8,0,23.3,0,3.7-.3,8.2,4.5,8.8ZM9.5,67.7c0-.1,0-.2.2-.2h12.8c.1,0,.2,0,.2.2v4.9c0,1.8-1.5,3.2-3.3,3.2h-6.6c-1.8,0-3.3-1.4-3.3-3.2v-4.9ZM8.9,34.8c-.7-.2-1.2-.7-1.2-1.3-.1-1.2.4-2,1.6-2.3,1.7-.4,4-.8,7-1,.2,0,.4.2.3.4-1.2,3.7-3.8,5.1-7.7,4.1Z" fill="#c21b81"/>
  <path d="M93.9,40.6c-7.2-4-14-8.5-20.2-13.3-1-.8-1.7-1-2.8-.4-4.5,2.4-11.9,6.5-22.1,12.2-.4.2-.7.7-.7,1.2-.8,9.8.8,21.3,6.9,29,3.2,4,7.3,7.6,12.3,10.7,1.1.7,2.2,1.4,3.4,1.8.3,0,.6,0,.9,0,5.2-2.8,9.9-6.2,14-10.1,3.4-3.2,5.8-7,7-11.2,1.1-3.7,1.7-7,1.6-10,0-3.9,0-6.9,0-9.1,0-.3-.1-.5-.4-.6ZM91.3,54.4c-.5,6.2-3.1,11.5-7.8,15.9-3.4,3.2-7.3,6-11.8,8.4-.5.3-1.3.2-2.2-.4-8.1-4.7-15-11.4-17.4-20.4-1.4-5.3-1.9-10.7-1.6-16.3,0-.2.1-.4.3-.5l20.5-11.8c.3-.2.6-.1.8,0,6.2,4.6,12.5,8.8,18.9,12.4.2,0,.3.3.3.5.4,3.7.4,7.7,0,12.2Z" fill="#c21b81"/>
  <path d="M25,45.5c-1.2,0-4,0-8.2,0-1.3,0-2.5.4-2.5,1.8-.1,2.3-.5,7.6,1.2,9.2.2.2.5.3.8.3,3.9.2,7.9.2,11.9-.2,3-.3,5.8-2.2,4.6-5.4-1.3-3.6-3.9-5.5-7.8-5.6ZM29.7,53.4c-1,.5-2.1.7-3.3.8-2.7,0-5.6,0-8.9,0-.4,0-.7-.3-.7-.7l-.2-5.3c0-.3.2-.5.5-.5,2.7,0,5.3,0,7.7.4,2.5.3,4.6,1.5,5.5,3.8.2.6,0,1.2-.6,1.5Z" fill="#c21b81"/>
  <path d="M82.4,47.6c-.4-.6-1.2-.6-1.7-.1l-11.5,12.4c0,0-.2,0-.3,0l-5.7-6.7c-.4-.5-1.2-.6-1.7-.1h-.1c-.6.6-.6,1.4-.1,2,2.7,3,4.9,5.4,6.7,7.1.9.9,1.9.9,2.8-.1,1.1-1.1,4.9-5.2,11.5-12.4.5-.6.6-1.4.1-2h0Z" fill="#c21b81"/>
</svg>