<?xml version="1.0" encoding="UTF-8"?>
<svg id="Vrstva_1" xmlns="http://www.w3.org/2000/svg" version="1.1" viewBox="0 0 100 100">
  <!-- Generator: Adobe Illustrator 30.0.0, SVG Export Plug-In . SVG Version: 2.1.1 Build 123)  -->
  <g id="_x23_30302eff">
    <path d="M37,30.6c.2-.9-.4-2.4.7-2.8,3.4-.2,6.8,0,10.2,0,1.9,0,4.2-.3,5.8,1,1.4,1,2,2.8,1.9,4.5,0,9.9,0,19.7,0,29.6.2,2.5-1.9,4.9-4.4,5-6.5.2-13-.2-19.5,0-1.3,4.7-6.5,7.9-11.2,6.3-3.4-.9-5.6-4-6.5-7.2-3.5-1.2-8.3-.5-10.4-4.1-1.5-3,.8-6,1.7-8.8,1.2-2.5,1.5-5.9,4.1-7.4,4.2-1.8,9.3-.9,13.1-3.8,3.5-2.2,6.8-4.9,10.6-6.6l1.2,1.1c-4.3,2.8-8.5,5.7-12.9,8.4-3.6,1.5-7.8,1.1-11.4,2.7-1.9,2.4-2.4,5.5-3.7,8.3-.8,1.9-2.2,4.6,0,6.2,2.4,1.2,5.2,1.3,7.8,2,.6-2.5,1.7-5.1,3.9-6.6,3.8-2.8,9.7-1.9,12.3,2,1.2,1.6,1.6,3.6,1.8,5.6,6.4-.2,12.8.1,19.2,0,3-.2,3.5-4.8.6-5.6-4.6-.4-9.3.2-14-.3-1.2-.2-.7-1.8-.8-2.6,0-9,0-17.9,0-26.9M38.9,29.6c0,9.5,0,19.1,0,28.6,4.9.4,10-.8,14.8.7,0-8.8,0-17.5,0-26.3,0-1.7-1.5-3.2-3.2-3.1-3.8,0-7.7,0-11.5,0M20,59.3c-2.8,1.3-4.5,4.6-3.9,7.6.6,3.4,4,6.1,7.5,5.7,4.3-.2,7.5-4.9,6.1-9-1.1-4-6.1-6.3-9.8-4.3Z" fill="#c31e82"/>
    <path d="M58.3,38.7c.4-.2,1.1-.5,1.5-.7,4.7,2.7,8.9,6.4,13.7,9.1,6.7,2,13.6,3.4,20.4,5.4,3.2,1.2,4.1,4.8,4.8,7.7.4,2.1.8,5-1.5,6.2-2.4,1.2-5.1,1-7.7,1.7-1.2,4-5.2,7-9.4,6.5-3.7-.2-6.6-3-7.9-6.2-3.9,0-7.8,0-11.7-.1-.9.1-1.9-.3-1.9-1.3.6-.5,1.2-.7,2-.6,3.7,0,7.5.1,11.2.2.2-2.7,1-5.6,3.2-7.5,3.4-3.2,9.2-2.9,12.4.5,1.7,1.7,2.4,4.2,2.6,6.5,2.4-.8,6.3.2,7.4-2.7.1-2.2-1-4.2-1.5-6.3-.5-1.8-2.1-2.8-3.9-3.2-5.9-1.5-11.9-3.1-17.9-4.6-2.4-.6-4.2-2.4-6.3-3.7-3.1-2.3-6.6-4.2-9.5-6.9M78.3,59.2c-4.9,1.7-6.1,8.9-1.9,12,3.9,3.5,10.9.8,11.4-4.4,1-5.1-4.7-9.7-9.5-7.6Z" fill="#c31e82"/>
    <path d="M28.8,48.6c1.6.3,4.9-1,5.1,1.4-1.5.9-3.3.3-4.9.2,0-.4-.2-1.1-.3-1.5Z" fill="#c31e82"/>
    <path d="M59.4,49.7c1.8-.2,3.6.1,5.4.3,0,2.4-2.7,1.3-4.2,1.5-1.2.4-2.7-1.1-1.1-1.9Z" fill="#c31e82"/>
  </g>
</svg>