<?xml version="1.0" encoding="UTF-8"?>
<svg id="Vrstva_1" xmlns="http://www.w3.org/2000/svg" version="1.1" viewBox="0 0 100 100">
  <!-- Generator: Adobe Illustrator 30.0.0, SVG Export Plug-In . SVG Version: 2.1.1 Build 123)  -->
  <path d="M70.5,89.9H20.7c-2.4,0-4.4-2-4.4-4.4v-7.8c0-3.4,1.5-6.7,4.1-8.9,2.6-2.2,6.1-3.2,9.5-2.7l30,2.4c-2.6-4.8-5.8-16.4,7-35.8.8-1.3,2.3-1.9,3.8-1.6l10.5,2.1c.9.2,1.7.7,2.2,1.4s.7,1.7.5,2.6l-8.5,35.9c-.2.8-1,1.2-1.7,1.1-.8-.2-1.2-.9-1.1-1.7l8.5-35.8c0-.2,0-.3,0-.4,0,0-.2-.2-.4-.2l-10.5-2.1c-.4,0-.7,0-.9.4-15.7,24-5.9,34.5-5.5,35,.4.4.5,1.1.3,1.6s-.8.9-1.4.8l-33-2.7c-2.7-.4-5.3.3-7.3,2-2,1.7-3.1,4.2-3.1,6.8v7.8c0,.9.7,1.6,1.6,1.6h49.8c.8,0,1.4.6,1.4,1.4s-.6,1.4-1.4,1.4Z" fill="#c31e82"/>
  <path d="M80.2,35.8c-.1,0-.3,0-.4,0-.7-.2-1.2-1-.9-1.8l2.6-8.3c.7-2.1-.3-3.9-1.4-4.9-1.3-1.1-3.1-1.4-4.6-.6-.6.3-1,.7-1.4,1.2-2.6,3.9-1.6,10.7-1.6,10.8.1.8-.4,1.5-1.2,1.6-.8.1-1.5-.4-1.6-1.2,0-.3-1.1-8,2-12.8.6-.9,1.4-1.6,2.5-2.1,2.5-1.3,5.5-.9,7.7,1,2.3,2,3.2,5.1,2.3,7.9l-2.6,8.3c-.2.6-.7,1-1.3,1Z" fill="#c31e82"/>
  <path d="M70.5,89.9c-5.4,0-9.7-4.4-9.7-9.7s4.4-9.7,9.7-9.7,9.7,4.4,9.7,9.7-4.4,9.7-9.7,9.7ZM70.5,73.3c-3.8,0-6.9,3.1-6.9,6.9s3.1,6.9,6.9,6.9,6.9-3.1,6.9-6.9-3.1-6.9-6.9-6.9Z" fill="#c31e82"/>
  <path d="M40.3,57.4h0c-.6,0-1.2-.4-1.3-1-1.2-3.6-4.4-6.8-8-8-.6-.2-1-.7-1-1.3s.4-1.2,1-1.3c3.6-1.2,6.8-4.4,8-8,.2-.6.7-1,1.3-1s1.2.4,1.3,1c1.2,3.6,4.4,6.8,8,8,.6.2,1,.7,1,1.3s-.4,1.2-1,1.3c-3.6,1.2-6.8,4.4-8,8-.2.6-.7,1-1.3,1ZM34.7,47.1c2.3,1.4,4.2,3.3,5.6,5.6,1.4-2.3,3.3-4.2,5.6-5.6-2.3-1.4-4.2-3.3-5.6-5.6-1.4,2.3-3.3,4.2-5.6,5.6Z" fill="#c31e82"/>
  <path d="M50.4,38.3c-.6,0-1.2-.4-1.3-1-.7-2.1-2.7-4.1-4.8-4.8-.6-.2-1-.7-1-1.3s.4-1.2,1-1.3c2.1-.7,4.1-2.7,4.8-4.8.2-.6.7-1,1.3-1s1.2.4,1.3,1c.7,2.1,2.7,4.1,4.8,4.8.6.2,1,.7,1,1.3s-.4,1.2-1,1.3c-2.1.7-4.1,2.7-4.8,4.8-.2.6-.7,1-1.3,1ZM47.8,31.2c1,.7,1.9,1.6,2.6,2.6.7-1,1.6-1.9,2.6-2.6-1-.7-1.9-1.6-2.6-2.6-.7,1-1.6,1.9-2.6,2.6Z" fill="#c31e82"/>
</svg>