<?xml version="1.0" encoding="UTF-8"?>
<svg id="Vrstva_1" xmlns="http://www.w3.org/2000/svg" version="1.1" viewBox="0 0 100 100">
  <!-- Generator: Adobe Illustrator 30.2.1, SVG Export Plug-In . SVG Version: 2.1.1 Build 1)  -->
  <g id="_x23_252423ff">
    <path d="M60.204,15.839c.425-.313,1.022-.173,1.442.084,3.515,2.14,7.043,4.262,10.566,6.391,3.574,2.026,6.111,5.781,6.626,9.859.074.62.213,1.248.119,1.873-.106.463-.448.817-.743,1.17-1.592,1.795-3.146,3.622-4.721,5.43-1.138,1.367-2.373,2.649-3.46,4.056.248.245.494.494.74.741,1.026-.516,2.021-1.102,3.107-1.487,1.69-.608,3.482-.989,5.285-.942,3.983-.161,7.959,1.385,10.921,4.027.313.285.645.569.845.949.298.599-.152,1.474-.87,1.4-.467.063-.817-.283-1.129-.573-3.19-3.056-7.918-4.409-12.242-3.503-1.558.318-3.073.881-4.431,1.716.307.37.634.723.963,1.074,2.38-1.268,5.108-1.881,7.803-1.683,3.678.326,7.117,2.417,9.22,5.433,1.66,2.285,2.486,5.154,2.356,7.971-.12,4.241-2.559,8.303-6.184,10.487-1.268.77-2.667,1.319-4.121,1.62-1.303.311-2.656.222-3.983.191-1.805-.194-3.548-.827-5.128-1.707-2.135-1.249-3.902-3.135-4.988-5.358-.925-1.855-1.342-3.923-1.449-5.981.089-1.966.525-3.94,1.463-5.682.241-.462.506-.912.759-1.369-.322-.314-.645-.629-.969-.939-1.243,1.614-1.957,3.585-2.325,5.573-.754,4.215.623,8.741,3.583,11.832.262.297.559.609.626,1.017.061.693-.722,1.369-1.391,1.067-.662-.317-1.076-.959-1.544-1.497-2.135-2.602-3.364-5.904-3.556-9.255-.161-3.363.727-6.794,2.604-9.599.193-.291.26-.635.286-.978-.697.421-1.166,1.095-1.69,1.697-3.335,3.848-6.669,7.694-10.001,11.544-.422.468-.786,1-1.291,1.385-.509.307-1.116.369-1.681.519-3.446.839-6.893,1.676-10.331,2.551-.389.085-.834.215-1.199-.016-.496-.269-.557-.9-.578-1.402.005-2.851.001-5.701.004-8.551.072-2.664-.89-5.293-2.446-7.434-1.102-1.511-2.53-2.739-3.942-3.95-.4-.332-.786-.694-1.248-.939-.219.168-.376.4-.531.625-1.017,1.574-2.088,3.113-3.133,4.669.625.761,1.306,1.482,1.839,2.313,1.092,1.65,1.744,3.566,2,5.521.066.885.042,1.775.027,2.663-.34,4.435-3.208,8.556-7.223,10.459-1.701.813-3.583,1.306-5.476,1.253-2.77.116-5.533-.829-7.765-2.45-2.822-2.052-4.757-5.289-5.178-8.757-.322-2.002-.002-4.051.629-5.961,1.251-3.623,4.237-6.576,7.845-7.851,2.268-.816,4.768-.978,7.119-.433.569.13,1.131.292,1.693.447.671-1.074,1.342-2.148,2.019-3.217.526-.847,1.1-1.666,1.542-2.562-6.356-4.043-13.207-7.24-20.159-10.108-.37-.178-.845-.428-.834-.904-.089-.662.468-1.13.874-1.565,2.456-2.421,5.831-3.814,9.241-4.142,3.491-.33,7.072.484,10.076,2.292,1.516.917,2.905,2.045,4.105,3.349.36.385.647.833,1.021,1.204.28.283.701.309,1.071.373,3.018.354,6.024.798,9.036,1.201.55.071,1.095.215,1.654.191.267-.019.4-.297.557-.477,1.474-2.171,3.352-4.095,5.585-5.486,1.461-.897,3.085-1.562,4.784-1.822,1.223-.074,2.451-.061,3.675-.016,1.926.227,3.743.98,5.448,1.878-.316-1.193-.779-2.339-1.175-3.505-.729-2.112-1.468-4.22-2.219-6.324-.161-.531-.326-1.266.175-1.669M62.923,19.228c.09.381.196.759.323,1.13.87,2.474,1.749,4.946,2.591,7.431.155.426.259.888.537,1.256.495.334,1.102.433,1.659.625,2.879.913,5.75,1.857,8.637,2.74.025-.644-.118-1.275-.352-1.872-.329-.021-.656-.054-.982-.084-1.825-.097-3.571-.909-4.93-2.109-.776-.718-1.495-1.697-1.345-2.815.022-.852.848-1.3,1.458-1.734-1.313-.912-2.723-1.675-4.077-2.523-1.177-.676-2.29-1.467-3.519-2.046M71.148,25.974c.962,1.344,2.535,2.221,4.176,2.37-.478-.983-1.162-1.888-2.014-2.575-.707-.212-1.485-.053-2.162.204M12.777,27.63c-1.098.438-2.171.979-3.073,1.753,1.568.249,3.155.334,4.73.53,4.78.486,9.558,1.006,14.34,1.484-.857-.933-1.865-1.713-2.921-2.408-2.352-1.537-5.153-2.325-7.953-2.389-1.748.058-3.493.389-5.122,1.03M51.641,28.488c-2.374,1.193-4.355,3.088-5.86,5.263,2.031.621,4.114,1.061,6.163,1.622.468.119.93.269,1.407.35.347.076.659-.141.949-.296,2.133-1.302,4.293-2.557,6.433-3.847.941-.571,1.92-1.086,2.807-1.74-2.206-1.426-4.744-2.442-7.397-2.495-1.556.085-3.103.453-4.503,1.144M65.161,31.353c-2.948,1.76-5.891,3.53-8.855,5.263-.165.104-.328.213-.468.349.025.186.198.29.328.404,2.446,1.763,4.894,3.525,7.317,5.321,1.141.786,2.221,1.662,3.394,2.403,3.104-3.526,6.156-7.099,9.241-10.64-3.314-1.061-6.63-2.115-9.938-3.194-.339-.139-.715-.116-1.019.094M14.46,32.05c.678.469,1.443.785,2.183,1.141,2.851,1.348,5.651,2.801,8.385,4.372,3.789,2.213,7.492,4.629,10.744,7.591.285.251.595.472.93.654,4.759,2.461,9.521,4.92,14.279,7.383,2.052,1.04,4.072,2.143,6.141,3.149,2.029-2.264,3.986-4.59,5.988-6.877.76-.947,1.659-1.78,2.326-2.799-3.858-2.817-7.729-5.615-11.586-8.433-.373-.274-.806-.451-1.253-.561-2.733-.683-5.459-1.389-8.187-2.087-.645-.163-1.306-.24-1.962-.333-2.802-.374-5.602-.753-8.405-1.123-1.094-.158-2.186-.334-3.286-.436-1.485-.132-2.958-.387-4.449-.448-2.962-.328-5.928-.618-8.89-.939-.989-.058-1.966-.293-2.96-.255M27.788,44.614c-2.164,3.445-4.317,6.896-6.485,10.338-.578.954-1.224,1.869-1.73,2.866.152.127.304.256.458.385.313-.349.6-.719.858-1.11,1.341-2.036,2.732-4.038,4.08-6.069,1.713-2.563,3.483-5.091,5.15-7.684-.329-.253-.661-.501-.994-.749-.505.634-.912,1.336-1.337,2.024M67.526,47.581c1.28,1.399,2.707,2.653,4.032,4.008,1.671,1.588,3.319,3.201,4.955,4.825.697.661,1.318,1.431,2.191,1.873.121-.275.458-.585.225-.892-.499-.704-1.149-1.284-1.728-1.919-1.355-1.489-2.744-2.947-4.097-4.438-1.503-1.561-2.915-3.207-4.452-4.735-.4.404-.774.831-1.125,1.277M78.745,48.522c-1.389.163-2.762.525-4.008,1.167,1.864,2.124,3.842,4.147,5.737,6.243.826.886.876,2.369.123,3.314-.657.862-1.884,1.268-2.909.871-.859-.322-1.428-1.082-2.08-1.688-1.696-1.609-3.341-3.272-5.025-4.892-1.119,1.568-1.625,3.507-1.732,5.412.048,2.26.645,4.55,1.926,6.433,1.06,1.592,2.58,2.852,4.288,3.7,1.312.65,2.773.922,4.221,1.053,3.63.123,7.289-1.664,9.334-4.685,1.284-1.821,1.91-4.04,1.972-6.252-.135-1.92-.551-3.874-1.607-5.512-2.08-3.442-6.191-5.724-10.24-5.164M12.148,51.1c-1.813,1.553-3.06,3.733-3.533,6.07-.777,3.751.626,7.869,3.57,10.331,1.976,1.722,4.593,2.634,7.203,2.648,1.536-.069,3.072-.402,4.466-1.063,2.588-1.214,4.658-3.494,5.599-6.196.52-1.537.754-3.196.533-4.81-.238-2.354-1.308-4.598-2.943-6.3-.644.802-1.182,1.678-1.761,2.525-1.021,1.498-2.024,3.008-3.031,4.515-.359.533-.817,1.058-1.457,1.245-.48.134-.998.135-1.483.032-1.03-.272-1.826-1.305-1.747-2.382-.041-.883.55-1.591.982-2.3,1.337-2.145,2.71-4.269,4.007-6.439-3.524-1.145-7.62-.334-10.404,2.124M39.898,49.905c.324.967.816,1.869,1.099,2.851.328,1.129.609,2.291.618,3.473.014,1.94-.002,3.878,0,5.818.006.863-.053,1.734.104,2.588.382-.074.766-.152,1.144-.248,2.895-.753,5.808-1.436,8.71-2.156.75-.161,1.17-.855,1.651-1.384.786-.973,1.683-1.854,2.41-2.875-4.419-2.331-8.874-4.596-13.306-6.902-.801-.406-1.576-.875-2.43-1.165Z" fill="#c32785"/>
  </g>
</svg>