<?xml version="1.0" encoding="UTF-8"?>
<svg id="Vrstva_1" xmlns="http://www.w3.org/2000/svg" version="1.1" viewBox="0 0 100 100">
  <!-- Generator: Adobe Illustrator 30.2.1, SVG Export Plug-In . SVG Version: 2.1.1 Build 1)  -->
  <g id="pin">
    <path d="M49.411,94.132c-1.552,0-3.054-.654-4.118-1.793-8.974-9.615-29.843-34.06-29.806-53.349C15.487,20.423,30.709,5.315,49.418,5.315s33.931,15.108,33.931,33.679c0,19.177-20.848,43.688-29.811,53.336-1.064,1.145-2.566,1.8-4.122,1.802h-.006ZM49.418,9.085c-16.631,0-30.161,13.416-30.161,29.909-.037,18.451,22.03,43.526,28.793,50.772.359.385.841.596,1.36.596h.002c.521,0,1.005-.214,1.364-.598,6.756-7.273,28.803-32.429,28.803-50.77,0-16.493-13.531-29.909-30.161-29.909Z" fill="#c21b81"/>
    <path d="M49.418,56.464c-9.355,0-16.966-7.61-16.966-16.966s7.61-16.966,16.966-16.966,16.966,7.61,16.966,16.966-7.61,16.966-16.966,16.966ZM49.418,26.303c-7.275,0-13.196,5.92-13.196,13.196s5.92,13.196,13.196,13.196,13.196-5.92,13.196-13.196-5.92-13.196-13.196-13.196Z" fill="#c21b81"/>
  </g>
</svg>