<?xml version="1.0" encoding="UTF-8"?>
<svg id="Vrstva_1" xmlns="http://www.w3.org/2000/svg" version="1.1" viewBox="0 0 100 100">
  <!-- Generator: Adobe Illustrator 30.2.1, SVG Export Plug-In . SVG Version: 2.1.1 Build 1)  -->
  <path d="M96.53,56.742c-.451-1.031-1.311-1.849-2.583-2.455-1.348-.643-2.741-1.151-4.178-1.529-5.849-1.534-12.266-2.2-18.238-2.854-.155-.018-.304-.063-.446-.131-.414-.207-.677-.349-.789-.425-2.589-1.755-4.773-3.2-6.557-4.335-1.786-1.138-3.391-2.043-4.815-2.714-2.806-1.327-5.877-2.014-9.292-2.261-4.018-.291-8.052-.275-12.101.052-7.257.582-13.704,3.25-19.985,7.273-.994.637-2.153,1.015-3.475,1.136-2.248.207-3.596.323-4.047.344-1.445.066-2.434.273-2.966.622-.886.577-1.408,1.429-1.566,2.56-.1.719-.218,2.623-.351,5.71-.003.092-.05.178-.126.231-1.975,1.38-1.196,4.063-.48,6.009.834,2.277,2.964,2.631,5.175,3.016,3.31.577,5.581.936,6.814,1.081.087.01.163.066.199.147.863,2.006,2.111,3.431,3.743,4.272,4.141,2.138,9.363.496,11.115-4.015.034-.089.118-.147.212-.147h40.555c.097,0,.184.052.228.139.186.362.393.737.616,1.125,3.257,5.618,11.616,4.949,14.144-1.036.058-.136.189-.228.338-.233,2.966-.1,5.253-.194,6.858-.283,1.589-.089,2.919-.742,3.158-2.426.239-1.689.37-3.184.393-4.487.005-.365-.102-.758-.323-1.18-.535-1.023-.944-2.541-1.23-3.202ZM94.503,57.476c.073-.003.139.047.16.118l.346,1.204c.016.047-.018.092-.068.094-.199.005-.74-.013-1.623-.052-1.078-.052-1.605-.346-2.182-1.157-.031-.045,0-.105.055-.108l3.312-.1ZM46.51,41.874c3.84.11,7.517.472,11.073,2.085,3.766,1.707,6.454,3.588,10.866,6.588.042.029.024.094-.026.097-1.178.073-2.179.105-3.008.092-5.416-.071-11.251-.228-17.504-.472-.063-.003-.115-.047-.123-.108l-1.39-8.154c-.013-.068.042-.131.113-.129ZM27.915,46.044c.365-.312,1.096-.847,2.19-1.6,1.909-1.317,3.706-1.951,6.148-2.227,2.52-.286,5.141-.407,7.858-.357.089.003.165.066.181.155l1.38,8.109c.01.055-.034.108-.089.105l-18.781-.677c-.281-.008-.517-.215-.564-.493-.239-1.382.656-2.143,1.679-3.016ZM7.379,53.511c.003-.084.097-.136.17-.092,1.128.674,1.256,1.568,1.626,3.063.013.052-.029.102-.081.102h-1.76c-.058,0-.105-.05-.102-.108l.147-2.966ZM24.204,71.358c-3.257,0-5.896-2.638-5.896-5.896s2.638-5.896,5.896-5.896,5.896,2.638,5.896,5.896-2.638,5.896-5.896,5.896ZM79.957,71.356c-3.257,0-5.896-2.638-5.896-5.896s2.638-5.896,5.896-5.896,5.896,2.638,5.896,5.896-2.638,5.896-5.896,5.896ZM95.568,65.42c-.076.37-.33.572-.763.601-1.901.126-4.162.212-6.782.26-.066,0-.118-.055-.113-.121.509-8.162-9.699-11.878-14.469-5.277-1.083,1.503-1.55,3.276-1.401,5.319.005.063-.045.115-.108.115h-39.637c-.087,0-.155-.071-.15-.157.307-5.363-4.102-9.416-9.431-8.503-1.282.22-2.439.747-3.475,1.582-2.048,1.655-3.053,3.853-3.011,6.599.003.089-.076.16-.165.149-2.662-.354-5.141-.774-7.43-1.259-.7-.149-1.248-.362-1.644-.637-.742-.517-1.157-2.83-1.217-3.798-.008-.131.034-.26.118-.362l1.06-1.256c.05-.06.123-.094.199-.094.682-.008,1.453-.003,2.313.021,2.738.073,1.576-2.822,1.191-4.236-.38-1.401-1.162-2.313-2.457-2.922-.121-.058-.118-.228.005-.281.315-.134.679-.218,1.096-.249,2.489-.181,4.556-.383,6.205-.608,2.36-.323,4.786-2.374,7.024-3.533.881-.456,1.964-.978,3.247-1.568.024-.01.052-.003.066.018.013.024.011.052-.01.068-1.534,1.269-2.012,2.856-1.437,4.763.283.939.91,1.429,1.878,1.471,9.25.399,21.619.808,37.101,1.227,2.859.076,5.691.034,8.078-.671.152-.045.309-.063.464-.05,4.579.37,8.962.936,13.145,1.7,2.379.433,4.595,1.044,6.651,1.833.055.021.039.102-.021.102-.766-.008-1.783-.139-2.402.412-.464.417-.601.934-.404,1.55.527,1.668,1.65,2.73,3.373,3.187.092.024.186.037.283.039l3.223.066c.189.003.336.16.325.346-.073,1.416-.247,2.801-.517,4.154Z" fill="#c32785"/>
  <path d="M30.553,51.921h.073c.524,0,.95.426.95.95v3.509c0,.524-.425.949-.949.949h-.074c-.524,0-.95-.426-.95-.95v-3.509c0-.524.425-.949.949-.949Z" transform="translate(-24.142 85.025) rotate(-89.8)" fill="#c32785"/>
  <rect x="48.459" y="54.481" width="5.487" height="2.019" rx=".957" ry=".957" fill="#c32785"/>
</svg>