<?xml version="1.0" encoding="UTF-8"?>
<svg id="Vrstva_1" xmlns="http://www.w3.org/2000/svg" version="1.1" viewBox="0 0 100 100">
  <!-- Generator: Adobe Illustrator 30.2.1, SVG Export Plug-In . SVG Version: 2.1.1 Build 1)  -->
  <path d="M50.056,91.619c-23.443,0-42.516-19.074-42.516-42.516S26.614,6.586,50.056,6.586s42.516,19.074,42.516,42.516-19.074,42.516-42.516,42.516ZM50.056,10.283c-21.406,0-38.819,17.413-38.819,38.819s17.413,38.819,38.819,38.819,38.819-17.413,38.819-38.819S71.463,10.283,50.056,10.283Z" fill="#c31e82"/>
  <path d="M50.056,50.951c-1.022,0-1.849-.827-1.849-1.849v-25.88c0-1.022.827-1.849,1.849-1.849s1.849.827,1.849,1.849v25.88c0,1.022-.827,1.849-1.849,1.849Z" fill="#c31e82"/>
  <path d="M68.542,69.437c-.473,0-.946-.181-1.307-.542l-18.485-18.485c-.722-.722-.722-1.892,0-2.614s1.892-.722,2.614,0l18.485,18.485c.722.722.722,1.892,0,2.614-.361.361-.834.542-1.307.542Z" fill="#c31e82"/>
</svg>